<svg xmlns="http://www.w3.org/2000/svg" version="1.1" xmlns:xlink="http://www.w3.org/1999/xlink" width="512" height="512" x="0" y="0" viewBox="0 0 24 24" style="enable-background:new 0 0 512 512" xml:space="preserve" class=""><g><path d="M12 22c-.6 0-1-.4-1-1v-2c0-.6.4-1 1-1s1 .4 1 1v2c0 .6-.4 1-1 1zm6.5-2.7c-.3 0-.5-.1-.7-.3l-1.4-1.4c-.4-.4-.4-1 0-1.4s1-.4 1.4 0l1.4 1.4c.4.4.4 1 0 1.4-.2.1-.5.3-.7.3zm-13 0c-.6 0-1-.4-1-1 0-.3.1-.5.3-.7l1.4-1.4c.4-.4 1-.4 1.4 0s.4 1 0 1.4L6.2 19c-.2.2-.4.3-.7.3zM12 16c-2.2 0-4-1.8-4-4s1.8-4 4-4 4 1.8 4 4-1.8 4-4 4zm0-6c-1.1 0-2 .9-2 2s.9 2 2 2 2-.9 2-2-.9-2-2-2zm9 3h-2c-.6 0-1-.4-1-1s.4-1 1-1h2c.6 0 1 .4 1 1s-.4 1-1 1zM5 13H3c-.6 0-1-.4-1-1s.4-1 1-1h2c.6 0 1 .4 1 1s-.4 1-1 1zm12-4.9c-.6 0-1-.4-1-1 0-.3.1-.5.3-.7L17.8 5c.2-.2.4-.3.7-.3.6 0 1 .4 1 1 0 .3-.1.5-.3.7l-1.4 1.4c-.3.2-.5.3-.8.3zm-10 0c-.3 0-.5-.1-.7-.2L4.8 6.5c-.4-.4-.4-1 0-1.4s1-.4 1.4 0l1.4 1.4c.4.4.4 1 0 1.4-.1.1-.4.2-.6.2zM12 6c-.6 0-1-.4-1-1V3c0-.6.4-1 1-1s1 .4 1 1v2c0 .6-.4 1-1 1z" fill="#000000" opacity="1" data-original="#000000" class=""></path></g></svg>